<?xml version="1.0" encoding="UTF-8"?>
<svg id="Ebene_1" xmlns="http://www.w3.org/2000/svg" version="1.1" viewBox="0 0 1209.48 818.46">
  <!-- Generator: Adobe Illustrator 30.0.0, SVG Export Plug-In . SVG Version: 2.1.1 Build 123)  -->
  <defs>
    <style>
      .st0 {
        fill: #a5816a;
      }
    </style>
  </defs>
  <path class="st0" d="M307.2,239.07l-31.68,34v27.02c0,14.91,6.52,23.99,16.07,23.99h.23v2.33h-54.73v-2.33h.23c9.55,0,16.07-9.08,16.07-23.99v-110.4c0-14.91-6.52-23.99-16.07-23.99h-.23v-2.33h54.73v2.33h-.23c-9.55,0-16.07,9.08-16.07,23.99v81.05l30.51-33.07-10.48-14.44h23.76l23.29-25.15c7.69-8.38,21.19-32.84-4.66-32.84v-1.86h51.71l.23,1.86c-13.28,0-29.11,15.84-47.28,35.4l-22.13,23.99,64.75,84.78c3.73,5.12,11.18,14.67,18.17,14.67h-.7v2.33h-31.44l-64.05-87.34Z"/>
  <path class="st0" d="M426.31,183.64v113.43c0,14.91,11.65,27.02,21.19,27.02h.23v2.33h-45.19v-2.33h.23c9.55,0,21.43-12.11,21.43-27.02v-107.37c0-14.91-6.52-23.99-16.07-23.99v-2.33h29.58l109.93,125.54v-94.56c0-14.91-11.65-28.65-21.19-28.65h-.23v-2.33h43.09v2.33h-.23c-9.55,0-19.33,13.74-19.33,28.65v132.06h-2.1l-121.35-142.77Z"/>
  <path class="st0" d="M697.61,269.12l-8.15,57.3h-121.11v-2.33c9.78,0,16.07-9.08,16.07-23.99v-110.4c0-14.91-6.29-23.99-16.07-23.99v-2.33h115.06l7.92,36.1h-1.4c-6.52-20.73-18.17-34-39.59-34h-43.79v158.84h47.05c21.19,0,38.43-33.77,42.62-55.2h1.4ZM648.7,270.28h-1.4v-11.88c0-9.32-5.59-15.37-13.97-15.37h-1.4v-1.4h1.4c8.38,0,13.97-6.29,13.97-15.37v-11.88h1.4v11.88c0,9.08,5.59,15.37,13.97,15.37h2.56v1.4h-2.56c-8.38,0-13.97,6.06-13.97,15.37v11.88Z"/>
  <path class="st0" d="M780.55,179.45l-6.99-16.07h23.99l63.58,146.03c2.56,5.82,10.71,14.67,17.47,14.67v2.33h-50.54v-2.33h.7c5.82,0,7.92-3.03,7.92-7.22,0-3.26-.93-6.99-2.56-10.48l-52.87-124.84-51.01,113.43c-1.63,3.26-2.33,6.29-2.33,8.62,0,7.92,3.03,20.5,14.67,20.5h1.17v2.33h-47.28v-2.33c10.95,0,24.22-13.74,28.42-22.82l55.66-121.81M778.69,307.78h-1.4v-11.88c0-9.32-5.59-15.37-13.97-15.37h-1.4v-1.4h1.4c8.38,0,13.97-6.29,13.97-15.6v-11.65h1.4v11.65c0,9.32,5.59,15.6,13.97,15.6h2.56v1.4h-2.56c-8.38,0-13.97,6.06-13.97,15.37v11.88Z"/>
  <path class="st0" d="M1031.49,244.89c0,40.76-31.44,81.52-94.1,81.52h-58.69v-2.33c9.78,0,16.07-9.08,16.07-23.99v-110.4c0-14.91-6.29-23.99-16.07-23.99v-2.33h58.69c62.65,0,94.1,40.76,94.1,81.52ZM936.93,324.31c47.28,0,71.04-39.83,71.04-78.96s-23.99-79.89-71.27-79.89h-19.8v158.84h20.03Z"/>
  <path class="st0" d="M164.77,478.33c0-26.97,17.06-53.93,42.65-53.93,4.68,0,8.53.55,12.11,1.93-16.24-17.34-22.84-32.75-22.84-45.96,0-28.07,30-44.58,58.89-44.58,26.14,0,49.53,15.41,49.53,43.2,0,16.24-24.77,17.34-24.77-.55,0-22.57-14.31-37.15-36.32-37.15-17.61,0-28.34,14.31-28.34,30,0,8.53,3.3,17.89,10.46,25.59l39.63,42.1c29.17-11.28,43.48,1.38,43.48,20.64,0,6.33-1.38,13.76-4.13,21.46l1.38,1.65c34.67,36.88,20.36,80.63-18.16,80.63-18.99,0-17.06-20.64-5.5-20.64,7.98,0,10.73,9.36,20.09,9.36,22.56,0,12.93-23.39-10.18-48.98-13.21,16.79-34.95,30.27-66.04,30.27-44.3,0-61.92-27.52-61.92-55.04ZM226.42,433.75c-3.58-3.3-7.98-5.5-11.56-5.5-12.38.55-24.22,18.44-24.22,37.7,0,48.98,61.64,53.93,94.39,28.89l-58.61-61.09ZM300.44,476.13c2.75-5.78,4.4-12.38,4.4-19.54,0-13.76-11.01-23.12-36.6-14.86l32.2,34.4Z"/>
  <path class="st0" d="M352.5,358.77v113.43c0,14.91,11.65,27.02,21.19,27.02h.23v2.33h-45.19v-2.33h.23c9.55,0,21.43-12.11,21.43-27.02v-107.37c0-14.91-6.52-23.99-16.07-23.99v-2.33h29.58l109.93,125.54v-94.56c0-14.91-11.65-28.65-21.19-28.65h-.23v-2.33h43.09v2.33h-.23c-9.55,0-19.33,13.74-19.33,28.65v132.06h-2.1l-121.35-142.77Z"/>
  <path class="st0" d="M948.52,414.2l-31.68,34v27.02c0,14.91,6.52,23.99,16.07,23.99h.23v2.33h-54.73v-2.33h.23c9.55,0,16.07-9.08,16.07-23.99v-110.4c0-14.91-6.52-23.99-16.07-23.99h-.23v-2.33h54.73v2.33h-.23c-9.55,0-16.07,9.08-16.07,23.99v81.05l30.51-33.07-10.48-14.44h23.76l23.29-25.15c7.69-8.38,21.19-32.84-4.66-32.84v-1.86h51.71l.23,1.86c-13.28,0-29.11,15.84-47.28,35.4l-22.13,23.99,64.75,84.78c3.73,5.12,11.18,14.67,18.17,14.67h-.7v2.33h-31.44l-64.05-87.34Z"/>
  <path class="st0" d="M780.59,336.18c-56.6,0-84.78,41.92-84.78,83.85s28.18,83.85,84.78,83.85,87.11-42.39,87.11-84.55-28.65-83.15-87.11-83.15ZM788.51,500.61c-44.49,0-71.04-49.38-71.04-92.93,0-35.17,16.3-68.48,54.03-68.48,46.35,0,75,50.54,75,94.09,0,34.94-17.24,67.31-57.99,67.31Z"/>
  <path class="st0" d="M540.7,403.4h-1.02v-8.65c0-6.78-4.07-11.19-10.18-11.19h-1.02v-1.02h1.02c6.11,0,10.18-4.58,10.18-11.19v-8.65h1.02v8.65c0,6.61,4.07,11.19,10.17,11.19h1.87v1.02h-1.87c-6.11,0-10.17,4.41-10.17,11.19v8.65Z"/>
  <path class="st0" d="M572.63,467.11h-.74v-6.31c0-4.95-2.97-8.17-7.42-8.17h-.74v-.74h.74c4.45,0,7.42-3.34,7.42-8.17v-6.31h.74v6.31c0,4.83,2.97,8.17,7.42,8.17h1.36v.74h-1.36c-4.45,0-7.42,3.22-7.42,8.17v6.31Z"/>
  <path class="st0" d="M648.41,444.16h-.98v-8.31c0-6.52-3.91-10.75-9.78-10.75h-.98v-.98h.98c5.87,0,9.78-4.4,9.78-10.75v-8.31h.98v8.31c0,6.35,3.91,10.75,9.77,10.75h1.79v.98h-1.79c-5.87,0-9.77,4.24-9.77,10.75v8.31Z"/>
  <path class="st0" d="M620.56,399.07c-8.05-12.79-22.66-20.01-37.7-20.47-5.59-.07-11.58,1.51-15.92,5.28-10.73,9.36.17,25.8,7.73,33.69,4.8,5.14,10.86,9.09,17.62,11.16,10.34,3.49,24.78,4.12,31.41-6.39,4.2-7.56,1.01-16.6-3.14-23.26ZM583.39,423.21c-5.61-3.77-10.32-8.97-13.74-14.79-.93-1.66-1.88-3.56-2.66-5.55,7.37-.45,14.75,1.91,20.76,6.2,6.19,4.42,11.23,10.89,13.23,18.24-6.41.37-13.12-1.15-17.6-4.1ZM617.61,418.86c-2.16,3.83-6.09,6.26-10.65,7.5-3.87-18.31-23.02-31.84-41.54-29.42-.37-3.14.12-6.19,2.19-8.66,6.46-6.2,16.49-5.01,24.3-2.1,8.83,3.26,17.45,8.48,22.3,16.85,2.68,4.45,5.43,11.17,3.4,15.83Z"/>
  <path class="st0" d="M524.78,493.25c.56,5.29-1.47,13.08-8.21,13.19-9.42-.93-9.9-13.75-5.99-20.08,5.69-9.29,13.8-.98,14.21,6.89h0ZM520.97,493.25c.32-3.33-.13-9.04-4.4-9.37-1.9.11-3.22,1.84-3.85,3.55-1.29,3.49-.64,8.02,1.27,11.03.64.98,1.59,2.04,2.58,1.99,2.7-.84,4.06-4.34,4.4-7.19h0Z"/>
  <path class="st0" d="M966.95,543.63c-.81-7.85-4.82-15.3-10.66-20.52-17.57-15.3-43.09-15.86-63.62-7.32-14.64,6.62-29.71,12.32-45.24,16.56-1.86.51-3.76-.69-4.12-2.58-.99-5.29-2.2-10.53-3.83-15.78-1.94-5.71-4.78-14.22-12.43-14.06h0c-69.08,3.53-144.16,10.65-216.21,18.51-.1-1.91-.35-3.73-.58-5.45-.33-2.4-.89-6.48-1.36-9.93,7.09,0,14.17-.71,21.08-2.51,29.59-7.1,49.51-34.68,50.53-64.62.18-17.86-6.44-35-16.27-49.59-21.52-31.37-59.15-50.72-97.1-50.38-26.28.09-52.96,13.82-65.96,36.99-11.44,20.19-11.41,46.04-.71,66.4,2.38,4.65,5.13,9.06,8.15,13.27-2.11,4.08-3.18,8.52-1.9,13.49,2.12,9.34,13.41,13.62,18.75,5.23,8.18,7.3,17.38,13.48,27.22,18.38-.25,1.53-.42,3.1-.36,4.77-.07,6.08,5.37,12.92,12,11.12,4.03-1.15,6.22-4.52,7.66-8.16,4.45,1.37,8.96,2.5,13.52,3.37-2.02,4.75-4.93,9.25-5.46,14.59-.33,2.13-.31,4.32.03,6.44,0,0,0,0,0,0-60.12,6.79-117.13,13.81-165.55,19.34-.38.04-.74.13-1.08.3-7.46,3.74-10.68,20.04-11.34,32.22-.1,1.77-1.56,3.17-3.34,3.14-9.5-.13-19.02-.84-28.25-2.29-8.21-1.08-16.33-3.09-24.48-4.58-19.47-2.57-40.01,1.93-54.46,16.8-8.23,8.32-12.36,22.78-7.27,34.19,9.09,20.94,33.81,27.48,54.47,24.82,8.13-1.01,16.14-3.86,23.54-7.38,12.94-5.72,26.22-10.58,39.92-14.07.29-.08.58-.16.87-.23,1.8-.47,3.65.65,4.06,2.46,1.05,4.67,2.35,9.33,4.05,14.01,1.84,4.56,3.11,8.36,7.25,12.09,1.9,1.79,4.44,2.59,6.9,2.38,34.63-1.41,69.17-3.61,103.68-6.23,103.26-8.29,207.18-17.97,309.41-34.93,3.02-.51,4.8-2.14,6.22-4.42,4.15-8.19,3.53-17.4,3.82-26.1,0-.63-.02-1.26-.04-1.89-.05-1.94,1.58-3.52,3.52-3.39,13.4.89,26.62,2.79,39.77,5.55l7.66,1.66c9.13,1.97,18.54,1.91,27.69.06,19.69-3.58,41.69-19.17,39.84-41.74ZM828.06,510.03s0-.06,0-.09c0,0,0,.08,0,.09ZM827.72,506.67c-.04-.39-.08-.78-.12-1.18.06.59.06.64.12,1.18ZM827.1,500.41c-.02-.22-.04-.38-.04-.44,0,0,.03.28.04.44ZM655.87,479.46c-11.05,12.05-26.89,18.35-43.19,19.4-1.43.1-2.87.16-4.31.2,0-.03,0-.06-.01-.09-.64-5.55-1.32-14.32,5.42-15.98,4.58-.76,9.08,2.05,13.76,1.72,9.6-.27,12.06-9.87,13.88-17.45,4.43-17.73,17.18-7.24,27.83-10.28-2.93,8.3-7.5,16.06-13.38,22.48ZM510.03,450.15c-8.74-13.02-14.36-28.2-13.69-43.83.52-11.69,4.1-22.84,10.25-32.3-.91,4.9-1.07,9.95-.49,14.91.89,7.33,3.34,14.66,7.7,20.67,1.09,1.65,3.35,4.07,4.59,5.52,7.75,8.09,6.06,15.99-.21,24.37-2.64,3.36-5.75,6.87-8.14,10.67ZM554.32,480.27c-.15,2.34-.66,4.54-1.12,6.77-9.64-4.69-18.62-10.69-26.58-17.87,1-2.11,1.62-4.13,2.58-5.86,2.04-3.81,5.44-7.37,9.77-8.31,12.17-1.93,16.27,16.07,15.35,25.28ZM567.11,497.41c-3.08,4.27-7.07,3.99-9.03-.61-1.16-2.89-.69-5.82-.38-9.13,1.32-9.59-.81-19.92-6.33-27.95-5.94-8.64-15.42-8.09-22.38-.94-3.52,3.08-4.95,8.11-8.14,11.06-1.96,1.67-4.31,1.13-6.34-.53-4.51-4.03-3.96-11.45-1.5-16.57,3.69-8.29,11.37-15.87,12.07-25.51.49-4.95-1.69-9.81-4.16-13.93-2.52-4.15-4.74-7.89-6.41-12.04-4.85-11.85-4.48-25.53.33-37.36,4.03-3.99,8.66-7.45,13.82-10.22,12.82-7.15,27.76-10.43,42.39-9.16,28.21,2.04,55.21,15.09,74.98,35.12,14.87,14.95,26.36,34.87,26.89,56.3,0,5.14-.68,10.31-1.96,15.36-.65.84-1.5,1.48-2.51,1.94-8.86,3.33-19.46-3.82-26.85,6.25-4.18,5.51-5.18,12.86-9.88,17.81-3.06,2.83-6.85,2.13-11.03,1.84-14.15-1.87-17.52,8.03-17.21,20.16.02,3.53-.02,10.6-.02,14.14-.18,5.01.52,12.05-4.57,14.34-2.59.98-6.41,0-8.44-1.98-3.89-3.5-4.71-10.83-3.23-16.23,1.35-5.73,4.29-12.01,2.61-18.1-1.29-4.93-6.15-10-11.67-8.1-6.18,2.2-7.51,9.44-11.06,14.06ZM572.98,494.59c.18-.58.35-1.16.5-1.73,1.07-3.74,3.63-8.83,8.26-7.76,3.97,1.07,6.13,6.21,5.52,10.05-.14.84-.34,1.65-.58,2.46-4.62-.74-9.2-1.75-13.71-3.02ZM413.37,560.22c.33-1.95.85-4.46,1.61-6.49,3.49,6.2,4.63,14.68,5.91,21.66.04.28.08.56.12.83-1.02.04-2.01.09-2.01.09-2.22.15-4.45.26-6.69.35-.06-5.59.25-11.15,1.07-16.45ZM377.21,613.8c-7.44,1.64-14.75,3.75-21.96,6.07-6.08,2.15-12.14,4.07-18.65,4.24-11.01.86-34.21-3.63-32.74-17.25,3.17-12.06,18.06-17.72,29.56-19.38,7.6-1.18,15.18.2,22.71,1.12,19.15,2.24,38.66,2.37,57.73-.78l2.14-.33c2.19,6.98,2.85,14.52,2.16,21.81-13.74.04-27.56,1.39-40.95,4.5ZM424.31,641.8c-.06.25-.13.5-.2.74-.19-.35-.39-.7-.58-1.06-3.14-6.37-4.95-13.3-6.51-20.39,2.14-.41,4.26-.82,6.32-1.24l2.13-.31c.01.23.03.46.04.69.24,7.08.36,14.85-1.2,21.57ZM837.4,603.35s0,0,0,0c0,0,.11,1.1.26,2.58-.15-1.48-.26-2.58-.26-2.58ZM837.96,608.98c.05.53.07.66.13,1.26-.04-.41-.08-.83-.13-1.26ZM838.14,610.81c.05.48.08.82.12,1.17-.04-.36-.07-.75-.12-1.17ZM838.4,613.37s0,.08,0,.09c0-.03,0-.06,0-.09ZM836.89,603.37c-28.01,3.5-355.46,35.43-401.4,39.59,4.37-14.05,3.97-35.34,2.91-46.69-1.13-12.03-3.68-23.98-7.85-35.41-1.44-3.4-2.55-6.61-4.09-9.63,15.39-1.97,84.76-8.71,162.48-16.29,1.09.57,2.26,1.03,3.53,1.33,5.48,1.42,10.21.06,13.5-2.99,89.99-8.79,186.58-18.32,221.61-22.73,13.85,14.84,19.9,75.6,9.29,92.82ZM934.83,561.15c-7.26,4.29-16.46,6.63-25.49,6.7-10.49-.38-20.86-2.56-31.42-2.64-10.04-.3-20.14.03-30.09,1.47-.49-7.48-1.24-14.94-2.24-22.38,15.62-.88,31.06-4.27,45.94-9,4.85-1.49,9.32-3.41,14.28-4.31,8.87-1.7,18.35-1.21,26.3,1.59,17.51,6.29,18.4,19.2,2.72,28.57Z"/>
</svg>